<svg width="1002" height="25" viewBox="0 0 1002 25" fill="none" xmlns="http://www.w3.org/2000/svg">
<path d="M6.296 20.24C5.144 20.24 4.152 20.048 3.32 19.664C2.504 19.28 1.872 18.728 1.424 18.008C0.976 17.288 0.744 16.432 0.728 15.44H2.888C2.888 16.32 3.184 17.016 3.776 17.528C4.384 18.04 5.224 18.296 6.296 18.296C7.304 18.296 8.088 18.048 8.648 17.552C9.224 17.056 9.512 16.368 9.512 15.488C9.512 14.784 9.32 14.168 8.936 13.64C8.568 13.112 8.032 12.744 7.328 12.536L4.952 11.792C3.752 11.424 2.824 10.808 2.168 9.944C1.528 9.08 1.208 8.064 1.208 6.896C1.208 5.952 1.416 5.136 1.832 4.448C2.264 3.744 2.864 3.2 3.632 2.816C4.4 2.416 5.304 2.216 6.344 2.216C7.88 2.216 9.112 2.648 10.04 3.512C10.968 4.36 11.44 5.496 11.456 6.92H9.296C9.296 6.056 9.032 5.384 8.504 4.904C7.992 4.408 7.264 4.16 6.32 4.16C5.392 4.16 4.664 4.384 4.136 4.832C3.624 5.28 3.368 5.904 3.368 6.704C3.368 7.424 3.56 8.048 3.944 8.576C4.328 9.104 4.88 9.48 5.6 9.704L8 10.472C9.168 10.84 10.072 11.464 10.712 12.344C11.352 13.224 11.672 14.256 11.672 15.44C11.672 16.4 11.448 17.24 11 17.96C10.552 18.68 9.92 19.24 9.104 19.64C8.304 20.04 7.368 20.24 6.296 20.24ZM20.5906 20.192C19.5346 20.192 18.6226 19.992 17.8546 19.592C17.0866 19.192 16.4866 18.616 16.0546 17.864C15.6386 17.096 15.4306 16.192 15.4306 15.152V11.648C15.4306 10.592 15.6386 9.688 16.0546 8.936C16.4866 8.184 17.0866 7.608 17.8546 7.208C18.6226 6.808 19.5346 6.608 20.5906 6.608C21.6466 6.608 22.5586 6.808 23.3266 7.208C24.0946 7.608 24.6866 8.184 25.1026 8.936C25.5346 9.688 25.7506 10.584 25.7506 11.624V15.152C25.7506 16.192 25.5346 17.096 25.1026 17.864C24.6866 18.616 24.0946 19.192 23.3266 19.592C22.5586 19.992 21.6466 20.192 20.5906 20.192ZM20.5906 18.272C21.5346 18.272 22.2706 18.008 22.7986 17.48C23.3266 16.952 23.5906 16.176 23.5906 15.152V11.648C23.5906 10.624 23.3266 9.848 22.7986 9.32C22.2706 8.792 21.5346 8.528 20.5906 8.528C19.6626 8.528 18.9266 8.792 18.3826 9.32C17.8546 9.848 17.5906 10.624 17.5906 11.648V15.152C17.5906 16.176 17.8546 16.952 18.3826 17.48C18.9266 18.008 19.6626 18.272 20.5906 18.272ZM29.3652 20V6.8H31.2613V8.384H31.6933L31.3573 8.96C31.3573 8.224 31.5493 7.64 31.9333 7.208C32.3333 6.776 32.8693 6.56 33.5413 6.56C34.2773 6.56 34.8453 6.832 35.2453 7.376C35.6453 7.92 35.8453 8.688 35.8453 9.68L35.1973 8.384H36.2053L35.7493 8.96C35.7493 8.224 35.9493 7.64 36.3493 7.208C36.7653 6.776 37.3093 6.56 37.9813 6.56C38.8133 6.56 39.4533 6.872 39.9012 7.496C40.3653 8.12 40.5973 8.944 40.5973 9.968V20H38.6053V9.944C38.6053 9.4 38.4853 8.976 38.2453 8.672C38.0213 8.368 37.6853 8.216 37.2373 8.216C36.8053 8.216 36.4613 8.368 36.2053 8.672C35.9653 8.96 35.8453 9.376 35.8453 9.92V20H34.1172V9.944C34.1172 9.384 33.9893 8.96 33.7333 8.672C33.4933 8.368 33.1493 8.216 32.7013 8.216C32.2533 8.216 31.9173 8.368 31.6933 8.672C31.4693 8.96 31.3573 9.376 31.3573 9.92V20H29.3652ZM49.3719 20.24C48.3319 20.24 47.4199 20.032 46.6359 19.616C45.8679 19.2 45.2679 18.616 44.8359 17.864C44.4199 17.096 44.2119 16.208 44.2119 15.2V11.6C44.2119 10.576 44.4199 9.688 44.8359 8.936C45.2679 8.184 45.8679 7.6 46.6359 7.184C47.4199 6.768 48.3319 6.56 49.3719 6.56C50.4119 6.56 51.3159 6.768 52.0839 7.184C52.8679 7.6 53.4679 8.184 53.8839 8.936C54.3159 9.688 54.5319 10.576 54.5319 11.6V13.928H46.3239V15.2C46.3239 16.24 46.5879 17.04 47.1159 17.6C47.6439 18.144 48.3959 18.416 49.3719 18.416C50.2039 18.416 50.8759 18.272 51.3879 17.984C51.8999 17.68 52.2119 17.232 52.3239 16.64H54.4839C54.3399 17.744 53.7959 18.624 52.8519 19.28C51.9239 19.92 50.7639 20.24 49.3719 20.24ZM52.4199 12.488V11.6C52.4199 10.56 52.1559 9.76 51.6279 9.2C51.1159 8.64 50.3639 8.36 49.3719 8.36C48.3959 8.36 47.6439 8.64 47.1159 9.2C46.5879 9.76 46.3239 10.56 46.3239 11.6V12.296H52.5879L52.4199 12.488ZM78.1531 20.192C77.0971 20.192 76.1851 19.992 75.4171 19.592C74.6491 19.192 74.0491 18.616 73.6171 17.864C73.2011 17.096 72.9931 16.192 72.9931 15.152V11.648C72.9931 10.592 73.2011 9.688 73.6171 8.936C74.0491 8.184 74.6491 7.608 75.4171 7.208C76.1851 6.808 77.0971 6.608 78.1531 6.608C79.2091 6.608 80.1211 6.808 80.8891 7.208C81.6571 7.608 82.2491 8.184 82.6651 8.936C83.0971 9.688 83.3131 10.584 83.3131 11.624V15.152C83.3131 16.192 83.0971 17.096 82.6651 17.864C82.2491 18.616 81.6571 19.192 80.8891 19.592C80.1211 19.992 79.2091 20.192 78.1531 20.192ZM78.1531 18.272C79.0971 18.272 79.8331 18.008 80.3611 17.48C80.8891 16.952 81.1531 16.176 81.1531 15.152V11.648C81.1531 10.624 80.8891 9.848 80.3611 9.32C79.8331 8.792 79.0971 8.528 78.1531 8.528C77.2251 8.528 76.4891 8.792 75.9451 9.32C75.4171 9.848 75.1531 10.624 75.1531 11.648V15.152C75.1531 16.176 75.4171 16.952 75.9451 17.48C76.4891 18.008 77.2251 18.272 78.1531 18.272ZM90.6238 20V10.088H86.7838V8.12H90.6238V5.84C90.6238 4.8 90.9518 3.984 91.6078 3.392C92.2638 2.784 93.1678 2.48 94.3198 2.48H98.1838V4.448H94.3198C93.8238 4.448 93.4398 4.568 93.1678 4.808C92.9118 5.032 92.7838 5.376 92.7838 5.84V8.12H98.1838V10.088H92.7838V20H90.6238ZM115.709 20V6.8H117.605V8.384H118.037L117.701 8.96C117.701 8.224 117.893 7.64 118.277 7.208C118.677 6.776 119.213 6.56 119.885 6.56C120.621 6.56 121.189 6.832 121.589 7.376C121.989 7.92 122.189 8.688 122.189 9.68L121.541 8.384H122.549L122.093 8.96C122.093 8.224 122.293 7.64 122.693 7.208C123.109 6.776 123.653 6.56 124.325 6.56C125.157 6.56 125.797 6.872 126.245 7.496C126.709 8.12 126.941 8.944 126.941 9.968V20H124.949V9.944C124.949 9.4 124.829 8.976 124.589 8.672C124.365 8.368 124.029 8.216 123.581 8.216C123.149 8.216 122.805 8.368 122.549 8.672C122.309 8.96 122.189 9.376 122.189 9.92V20H120.461V9.944C120.461 9.384 120.333 8.96 120.077 8.672C119.837 8.368 119.493 8.216 119.045 8.216C118.597 8.216 118.261 8.368 118.037 8.672C117.813 8.96 117.701 9.376 117.701 9.92V20H115.709ZM132.788 24.32L134.732 19.184L129.836 6.8H132.236L135.308 14.96C135.42 15.232 135.524 15.56 135.62 15.944C135.716 16.312 135.796 16.624 135.86 16.88C135.924 16.624 136.004 16.312 136.1 15.944C136.196 15.56 136.292 15.232 136.388 14.96L139.268 6.8H141.596L135.092 24.32H132.788ZM160.249 20L158.137 6.8H160.057L161.377 16.16C161.425 16.512 161.473 16.896 161.521 17.312C161.585 17.712 161.633 18.048 161.665 18.32C161.697 18.048 161.745 17.712 161.809 17.312C161.889 16.896 161.953 16.512 162.001 16.16L163.465 6.8H165.529L166.993 16.16C167.041 16.512 167.097 16.896 167.161 17.312C167.241 17.712 167.297 18.048 167.329 18.32C167.361 18.048 167.409 17.712 167.473 17.312C167.553 16.896 167.617 16.512 167.665 16.16L169.033 6.8H170.857L168.649 20H166.273L164.857 10.88C164.793 10.432 164.721 9.984 164.641 9.536C164.561 9.088 164.505 8.736 164.473 8.48C164.441 8.736 164.393 9.088 164.329 9.536C164.265 9.984 164.193 10.432 164.113 10.88L162.625 20H160.249ZM178.888 20.24C177.848 20.24 176.936 20.032 176.152 19.616C175.384 19.2 174.784 18.616 174.352 17.864C173.936 17.096 173.728 16.208 173.728 15.2V11.6C173.728 10.576 173.936 9.688 174.352 8.936C174.784 8.184 175.384 7.6 176.152 7.184C176.936 6.768 177.848 6.56 178.888 6.56C179.928 6.56 180.832 6.768 181.6 7.184C182.384 7.6 182.984 8.184 183.4 8.936C183.832 9.688 184.048 10.576 184.048 11.6V13.928H175.84V15.2C175.84 16.24 176.104 17.04 176.632 17.6C177.16 18.144 177.912 18.416 178.888 18.416C179.72 18.416 180.392 18.272 180.904 17.984C181.416 17.68 181.728 17.232 181.84 16.64H184C183.856 17.744 183.312 18.624 182.368 19.28C181.44 19.92 180.28 20.24 178.888 20.24ZM181.936 12.488V11.6C181.936 10.56 181.672 9.76 181.144 9.2C180.632 8.64 179.88 8.36 178.888 8.36C177.912 8.36 177.16 8.64 176.632 9.2C176.104 9.76 175.84 10.56 175.84 11.6V12.296H182.104L181.936 12.488ZM194.046 20.24C192.958 20.24 192.086 19.952 191.43 19.376C190.774 18.784 190.446 17.984 190.446 16.976L190.878 17.48H190.446V20H188.286V2.48H190.446V6.32L190.398 9.32H190.878L190.446 9.824C190.446 8.832 190.774 8.04 191.43 7.448C192.102 6.856 192.974 6.56 194.046 6.56C195.374 6.56 196.438 7 197.238 7.88C198.038 8.76 198.438 9.96 198.438 11.48V15.344C198.438 16.848 198.038 18.04 197.238 18.92C196.438 19.8 195.374 20.24 194.046 20.24ZM193.326 18.368C194.238 18.368 194.958 18.096 195.486 17.552C196.014 17.008 196.278 16.224 196.278 15.2V11.6C196.278 10.576 196.014 9.792 195.486 9.248C194.958 8.704 194.238 8.432 193.326 8.432C192.446 8.432 191.742 8.712 191.214 9.272C190.702 9.832 190.446 10.608 190.446 11.6V15.2C190.446 16.192 190.702 16.968 191.214 17.528C191.742 18.088 192.446 18.368 193.326 18.368ZM217.067 24.32V6.8H219.227V9.32H219.659L219.227 9.824C219.227 8.816 219.555 8.024 220.211 7.448C220.883 6.856 221.763 6.56 222.851 6.56C224.179 6.56 225.235 7 226.019 7.88C226.819 8.744 227.219 9.936 227.219 11.456V15.32C227.219 16.328 227.035 17.2 226.667 17.936C226.315 18.672 225.811 19.24 225.155 19.64C224.515 20.04 223.747 20.24 222.851 20.24C221.779 20.24 220.907 19.944 220.235 19.352C219.563 18.76 219.227 17.968 219.227 16.976L219.659 17.48H219.179L219.227 20.48V24.32H217.067ZM222.131 18.368C223.043 18.368 223.755 18.096 224.267 17.552C224.795 17.008 225.059 16.224 225.059 15.2V11.6C225.059 10.576 224.795 9.792 224.267 9.248C223.755 8.704 223.043 8.432 222.131 8.432C221.251 8.432 220.547 8.712 220.019 9.272C219.491 9.832 219.227 10.608 219.227 11.6V15.2C219.227 16.192 219.491 16.968 220.019 17.528C220.547 18.088 221.251 18.368 222.131 18.368ZM231.914 20V6.8H234.026V9.32H234.53L233.834 10.88C233.834 9.456 234.138 8.384 234.746 7.664C235.37 6.928 236.29 6.56 237.506 6.56C238.898 6.56 240.002 7 240.818 7.88C241.65 8.744 242.066 9.92 242.066 11.408V12.2H239.906V11.6C239.906 10.56 239.65 9.768 239.138 9.224C238.642 8.664 237.93 8.384 237.002 8.384C236.09 8.384 235.37 8.664 234.842 9.224C234.33 9.784 234.074 10.576 234.074 11.6V20H231.914ZM250.841 20.192C249.785 20.192 248.873 19.992 248.105 19.592C247.337 19.192 246.737 18.616 246.305 17.864C245.889 17.096 245.681 16.192 245.681 15.152V11.648C245.681 10.592 245.889 9.688 246.305 8.936C246.737 8.184 247.337 7.608 248.105 7.208C248.873 6.808 249.785 6.608 250.841 6.608C251.897 6.608 252.809 6.808 253.577 7.208C254.345 7.608 254.937 8.184 255.353 8.936C255.785 9.688 256.001 10.584 256.001 11.624V15.152C256.001 16.192 255.785 17.096 255.353 17.864C254.937 18.616 254.345 19.192 253.577 19.592C252.809 19.992 251.897 20.192 250.841 20.192ZM250.841 18.272C251.785 18.272 252.521 18.008 253.049 17.48C253.577 16.952 253.841 16.176 253.841 15.152V11.648C253.841 10.624 253.577 9.848 253.049 9.32C252.521 8.792 251.785 8.528 250.841 8.528C249.913 8.528 249.177 8.792 248.633 9.32C248.105 9.848 247.841 10.624 247.841 11.648V15.152C247.841 16.176 248.105 16.952 248.633 17.48C249.177 18.008 249.913 18.272 250.841 18.272ZM260.071 24.32V22.328H263.167C264.159 22.328 264.927 22.056 265.471 21.512C266.031 20.984 266.311 20.232 266.311 19.256V8.768H260.791V6.8H268.471V19.256C268.471 20.808 267.991 22.04 267.031 22.952C266.071 23.864 264.783 24.32 263.167 24.32H260.071ZM267.271 4.424C266.743 4.424 266.327 4.288 266.023 4.016C265.719 3.744 265.567 3.376 265.567 2.912C265.567 2.432 265.719 2.056 266.023 1.784C266.327 1.496 266.743 1.352 267.271 1.352C267.799 1.352 268.215 1.496 268.519 1.784C268.823 2.056 268.975 2.432 268.975 2.912C268.975 3.376 268.823 3.744 268.519 4.016C268.215 4.288 267.799 4.424 267.271 4.424ZM279.622 20.24C278.582 20.24 277.67 20.032 276.886 19.616C276.118 19.2 275.518 18.616 275.086 17.864C274.67 17.096 274.462 16.208 274.462 15.2V11.6C274.462 10.576 274.67 9.688 275.086 8.936C275.518 8.184 276.118 7.6 276.886 7.184C277.67 6.768 278.582 6.56 279.622 6.56C280.662 6.56 281.566 6.768 282.334 7.184C283.118 7.6 283.718 8.184 284.134 8.936C284.566 9.688 284.782 10.576 284.782 11.6V13.928H276.574V15.2C276.574 16.24 276.838 17.04 277.366 17.6C277.894 18.144 278.646 18.416 279.622 18.416C280.454 18.416 281.126 18.272 281.638 17.984C282.15 17.68 282.462 17.232 282.574 16.64H284.734C284.59 17.744 284.046 18.624 283.102 19.28C282.174 19.92 281.014 20.24 279.622 20.24ZM282.67 12.488V11.6C282.67 10.56 282.406 9.76 281.878 9.2C281.366 8.64 280.614 8.36 279.622 8.36C278.646 8.36 277.894 8.64 277.366 9.2C276.838 9.76 276.574 10.56 276.574 11.6V12.296H282.838L282.67 12.488ZM294.109 20.24C293.053 20.24 292.125 20.04 291.325 19.64C290.541 19.24 289.933 18.664 289.501 17.912C289.069 17.144 288.853 16.24 288.853 15.2V11.6C288.853 10.544 289.069 9.64 289.501 8.888C289.933 8.136 290.541 7.56 291.325 7.16C292.125 6.76 293.053 6.56 294.109 6.56C295.629 6.56 296.853 6.968 297.781 7.784C298.709 8.6 299.197 9.712 299.245 11.12H297.085C297.037 10.272 296.749 9.624 296.221 9.176C295.709 8.712 295.005 8.48 294.109 8.48C293.165 8.48 292.413 8.752 291.853 9.296C291.293 9.824 291.013 10.584 291.013 11.576V15.2C291.013 16.192 291.293 16.96 291.853 17.504C292.413 18.048 293.165 18.32 294.109 18.32C295.005 18.32 295.709 18.088 296.221 17.624C296.749 17.16 297.037 16.512 297.085 15.68H299.245C299.197 17.088 298.709 18.2 297.781 19.016C296.853 19.832 295.629 20.24 294.109 20.24ZM309.843 20C308.707 20 307.819 19.696 307.179 19.088C306.555 18.48 306.243 17.624 306.243 16.52V8.768H302.523V6.8H306.243V3.08H308.403V6.8H313.683V8.768H308.403V16.52C308.403 17.528 308.883 18.032 309.843 18.032H313.443V20H309.843ZM322.386 20.192C321.49 20.192 320.706 20.056 320.034 19.784C319.378 19.496 318.85 19.096 318.45 18.584C318.066 18.072 317.834 17.464 317.754 16.76H319.914C320.01 17.224 320.266 17.592 320.682 17.864C321.114 18.136 321.682 18.272 322.386 18.272H323.394C324.242 18.272 324.874 18.104 325.29 17.768C325.706 17.416 325.914 16.952 325.914 16.376C325.914 15.816 325.722 15.376 325.338 15.056C324.97 14.72 324.418 14.496 323.682 14.384L321.906 14.096C320.61 13.872 319.642 13.472 319.002 12.896C318.378 12.304 318.066 11.448 318.066 10.328C318.066 9.144 318.442 8.232 319.194 7.592C319.946 6.936 321.074 6.608 322.578 6.608H323.49C324.754 6.608 325.77 6.904 326.538 7.496C327.306 8.088 327.77 8.888 327.93 9.896H325.77C325.674 9.48 325.434 9.152 325.05 8.912C324.666 8.656 324.146 8.528 323.49 8.528H322.578C321.762 8.528 321.162 8.68 320.778 8.984C320.41 9.288 320.226 9.744 320.226 10.352C320.226 10.896 320.386 11.296 320.706 11.552C321.026 11.808 321.53 11.992 322.218 12.104L323.994 12.392C325.418 12.616 326.45 13.032 327.09 13.64C327.746 14.248 328.074 15.128 328.074 16.28C328.074 17.496 327.682 18.456 326.898 19.16C326.13 19.848 324.962 20.192 323.394 20.192H322.386ZM351.671 20.24C350.615 20.24 349.687 20.04 348.887 19.64C348.103 19.24 347.495 18.664 347.063 17.912C346.631 17.144 346.415 16.24 346.415 15.2V11.6C346.415 10.544 346.631 9.64 347.063 8.888C347.495 8.136 348.103 7.56 348.887 7.16C349.687 6.76 350.615 6.56 351.671 6.56C353.191 6.56 354.415 6.968 355.343 7.784C356.271 8.6 356.759 9.712 356.807 11.12H354.647C354.599 10.272 354.311 9.624 353.783 9.176C353.271 8.712 352.567 8.48 351.671 8.48C350.727 8.48 349.975 8.752 349.415 9.296C348.855 9.824 348.575 10.584 348.575 11.576V15.2C348.575 16.192 348.855 16.96 349.415 17.504C349.975 18.048 350.727 18.32 351.671 18.32C352.567 18.32 353.271 18.088 353.783 17.624C354.311 17.16 354.599 16.512 354.647 15.68H356.807C356.759 17.088 356.271 18.2 355.343 19.016C354.415 19.832 353.191 20.24 351.671 20.24ZM365.966 20.192C364.91 20.192 363.998 19.992 363.23 19.592C362.462 19.192 361.862 18.616 361.43 17.864C361.014 17.096 360.806 16.192 360.806 15.152V11.648C360.806 10.592 361.014 9.688 361.43 8.936C361.862 8.184 362.462 7.608 363.23 7.208C363.998 6.808 364.91 6.608 365.966 6.608C367.022 6.608 367.934 6.808 368.702 7.208C369.47 7.608 370.062 8.184 370.478 8.936C370.91 9.688 371.126 10.584 371.126 11.624V15.152C371.126 16.192 370.91 17.096 370.478 17.864C370.062 18.616 369.47 19.192 368.702 19.592C367.934 19.992 367.022 20.192 365.966 20.192ZM365.966 18.272C366.91 18.272 367.646 18.008 368.174 17.48C368.702 16.952 368.966 16.176 368.966 15.152V11.648C368.966 10.624 368.702 9.848 368.174 9.32C367.646 8.792 366.91 8.528 365.966 8.528C365.038 8.528 364.302 8.792 363.758 9.32C363.23 9.848 362.966 10.624 362.966 11.648V15.152C362.966 16.176 363.23 16.952 363.758 17.48C364.302 18.008 365.038 18.272 365.966 18.272ZM374.74 20V6.8H376.636V8.384H377.068L376.732 8.96C376.732 8.224 376.924 7.64 377.308 7.208C377.708 6.776 378.244 6.56 378.916 6.56C379.652 6.56 380.22 6.832 380.62 7.376C381.02 7.92 381.22 8.688 381.22 9.68L380.572 8.384H381.58L381.124 8.96C381.124 8.224 381.324 7.64 381.724 7.208C382.14 6.776 382.684 6.56 383.356 6.56C384.188 6.56 384.828 6.872 385.276 7.496C385.74 8.12 385.972 8.944 385.972 9.968V20H383.98V9.944C383.98 9.4 383.86 8.976 383.62 8.672C383.396 8.368 383.06 8.216 382.612 8.216C382.18 8.216 381.836 8.368 381.58 8.672C381.34 8.96 381.22 9.376 381.22 9.92V20H379.492V9.944C379.492 9.384 379.364 8.96 379.108 8.672C378.868 8.368 378.524 8.216 378.076 8.216C377.628 8.216 377.292 8.368 377.068 8.672C376.844 8.96 376.732 9.376 376.732 9.92V20H374.74ZM395.515 20.24C394.427 20.24 393.555 19.952 392.899 19.376C392.243 18.784 391.915 17.984 391.915 16.976L392.347 17.48H391.915V20H389.755V2.48H391.915V6.32L391.867 9.32H392.347L391.915 9.824C391.915 8.832 392.243 8.04 392.899 7.448C393.571 6.856 394.443 6.56 395.515 6.56C396.843 6.56 397.907 7 398.707 7.88C399.507 8.76 399.907 9.96 399.907 11.48V15.344C399.907 16.848 399.507 18.04 398.707 18.92C397.907 19.8 396.843 20.24 395.515 20.24ZM394.795 18.368C395.707 18.368 396.427 18.096 396.955 17.552C397.483 17.008 397.747 16.224 397.747 15.2V11.6C397.747 10.576 397.483 9.792 396.955 9.248C396.427 8.704 395.707 8.432 394.795 8.432C393.915 8.432 393.211 8.712 392.683 9.272C392.171 9.832 391.915 10.608 391.915 11.6V15.2C391.915 16.192 392.171 16.968 392.683 17.528C393.211 18.088 393.915 18.368 394.795 18.368ZM403.978 20V18.032H408.658V8.768H404.578V6.8H410.818V18.032H415.258V20H403.978ZM409.498 4.424C408.97 4.424 408.554 4.288 408.25 4.016C407.946 3.744 407.794 3.376 407.794 2.912C407.794 2.432 407.946 2.056 408.25 1.784C408.554 1.496 408.97 1.352 409.498 1.352C410.026 1.352 410.442 1.496 410.746 1.784C411.05 2.056 411.202 2.432 411.202 2.912C411.202 3.376 411.05 3.744 410.746 4.016C410.442 4.288 410.026 4.424 409.498 4.424ZM418.536 20V6.8H420.696V9.32H421.152L420.696 9.824C420.696 8.784 421.008 7.984 421.632 7.424C422.256 6.848 423.12 6.56 424.224 6.56C425.552 6.56 426.608 6.968 427.392 7.784C428.176 8.6 428.568 9.712 428.568 11.12V20H426.408V11.36C426.408 10.416 426.152 9.696 425.64 9.2C425.144 8.688 424.464 8.432 423.6 8.432C422.704 8.432 421.992 8.704 421.464 9.248C420.952 9.792 420.696 10.576 420.696 11.6V20H418.536ZM432.759 20V18.032H437.439V8.768H433.359V6.8H439.599V18.032H444.039V20H432.759ZM438.279 4.424C437.751 4.424 437.335 4.288 437.031 4.016C436.727 3.744 436.575 3.376 436.575 2.912C436.575 2.432 436.727 2.056 437.031 1.784C437.335 1.496 437.751 1.352 438.279 1.352C438.807 1.352 439.223 1.496 439.527 1.784C439.831 2.056 439.983 2.432 439.983 2.912C439.983 3.376 439.831 3.744 439.527 4.016C439.223 4.288 438.807 4.424 438.279 4.424ZM447.317 20V6.8H449.477V9.32H449.933L449.477 9.824C449.477 8.784 449.789 7.984 450.413 7.424C451.037 6.848 451.901 6.56 453.005 6.56C454.333 6.56 455.389 6.968 456.173 7.784C456.957 8.6 457.349 9.712 457.349 11.12V20H455.189V11.36C455.189 10.416 454.933 9.696 454.421 9.2C453.925 8.688 453.245 8.432 452.381 8.432C451.485 8.432 450.773 8.704 450.245 9.248C449.733 9.792 449.477 10.576 449.477 11.6V20H447.317ZM463.364 24.32V22.352H467.564C468.236 22.352 468.724 22.2 469.028 21.896C469.348 21.592 469.508 21.12 469.508 20.48V18.8L469.556 16.4H469.124L469.532 16.04C469.532 17 469.212 17.76 468.572 18.32C467.932 18.88 467.076 19.16 466.004 19.16C464.644 19.16 463.572 18.72 462.788 17.84C462.004 16.944 461.612 15.744 461.612 14.24V11.456C461.612 9.952 462.004 8.76 462.788 7.88C463.572 7 464.644 6.56 466.004 6.56C467.076 6.56 467.932 6.84 468.572 7.4C469.212 7.96 469.532 8.72 469.532 9.68L469.124 9.32H469.532V6.8H471.668V20.48C471.668 21.664 471.3 22.6 470.564 23.288C469.844 23.976 468.836 24.32 467.54 24.32H463.364ZM466.652 17.288C467.548 17.288 468.252 17.008 468.764 16.448C469.276 15.888 469.532 15.112 469.532 14.12V11.6C469.532 10.608 469.276 9.832 468.764 9.272C468.252 8.712 467.548 8.432 466.652 8.432C465.74 8.432 465.028 8.704 464.516 9.248C464.02 9.792 463.772 10.576 463.772 11.6V14.12C463.772 15.144 464.02 15.928 464.516 16.472C465.028 17.016 465.74 17.288 466.652 17.288ZM493.561 20V10.088H489.721V8.12H493.561V5.84C493.561 4.8 493.889 3.984 494.545 3.392C495.201 2.784 496.105 2.48 497.257 2.48H501.121V4.448H497.257C496.761 4.448 496.377 4.568 496.105 4.808C495.849 5.032 495.721 5.376 495.721 5.84V8.12H501.121V10.088H495.721V20H493.561ZM505.336 20V6.8H507.448V9.32H507.952L507.256 10.88C507.256 9.456 507.56 8.384 508.168 7.664C508.792 6.928 509.712 6.56 510.928 6.56C512.32 6.56 513.424 7 514.24 7.88C515.072 8.744 515.488 9.92 515.488 11.408V12.2H513.328V11.6C513.328 10.56 513.072 9.768 512.56 9.224C512.064 8.664 511.352 8.384 510.424 8.384C509.512 8.384 508.792 8.664 508.264 9.224C507.752 9.784 507.496 10.576 507.496 11.6V20H505.336ZM524.263 20.192C523.207 20.192 522.295 19.992 521.527 19.592C520.759 19.192 520.159 18.616 519.727 17.864C519.311 17.096 519.103 16.192 519.103 15.152V11.648C519.103 10.592 519.311 9.688 519.727 8.936C520.159 8.184 520.759 7.608 521.527 7.208C522.295 6.808 523.207 6.608 524.263 6.608C525.319 6.608 526.231 6.808 526.999 7.208C527.767 7.608 528.359 8.184 528.775 8.936C529.207 9.688 529.423 10.584 529.423 11.624V15.152C529.423 16.192 529.207 17.096 528.775 17.864C528.359 18.616 527.767 19.192 526.999 19.592C526.231 19.992 525.319 20.192 524.263 20.192ZM524.263 18.272C525.207 18.272 525.943 18.008 526.471 17.48C526.999 16.952 527.263 16.176 527.263 15.152V11.648C527.263 10.624 526.999 9.848 526.471 9.32C525.943 8.792 525.207 8.528 524.263 8.528C523.335 8.528 522.599 8.792 522.055 9.32C521.527 9.848 521.263 10.624 521.263 11.648V15.152C521.263 16.176 521.527 16.952 522.055 17.48C522.599 18.008 523.335 18.272 524.263 18.272ZM533.661 20V6.8H535.821V9.32H536.277L535.821 9.824C535.821 8.784 536.133 7.984 536.757 7.424C537.381 6.848 538.245 6.56 539.349 6.56C540.677 6.56 541.733 6.968 542.517 7.784C543.301 8.6 543.693 9.712 543.693 11.12V20H541.533V11.36C541.533 10.416 541.277 9.696 540.765 9.2C540.269 8.688 539.589 8.432 538.725 8.432C537.829 8.432 537.117 8.704 536.589 9.248C536.077 9.792 535.821 10.576 535.821 11.6V20H533.661ZM554.484 20C553.348 20 552.46 19.696 551.82 19.088C551.196 18.48 550.884 17.624 550.884 16.52V8.768H547.164V6.8H550.884V3.08H553.044V6.8H558.324V8.768H553.044V16.52C553.044 17.528 553.524 18.032 554.484 18.032H558.084V20H554.484ZM567.434 20.24C566.394 20.24 565.482 20.032 564.698 19.616C563.93 19.2 563.33 18.616 562.898 17.864C562.482 17.096 562.274 16.208 562.274 15.2V11.6C562.274 10.576 562.482 9.688 562.898 8.936C563.33 8.184 563.93 7.6 564.698 7.184C565.482 6.768 566.394 6.56 567.434 6.56C568.474 6.56 569.378 6.768 570.146 7.184C570.93 7.6 571.53 8.184 571.946 8.936C572.378 9.688 572.594 10.576 572.594 11.6V13.928H564.386V15.2C564.386 16.24 564.65 17.04 565.178 17.6C565.706 18.144 566.458 18.416 567.434 18.416C568.266 18.416 568.938 18.272 569.45 17.984C569.962 17.68 570.274 17.232 570.386 16.64H572.546C572.402 17.744 571.858 18.624 570.914 19.28C569.986 19.92 568.826 20.24 567.434 20.24ZM570.482 12.488V11.6C570.482 10.56 570.218 9.76 569.69 9.2C569.178 8.64 568.426 8.36 567.434 8.36C566.458 8.36 565.706 8.64 565.178 9.2C564.65 9.76 564.386 10.56 564.386 11.6V12.296H570.65L570.482 12.488ZM576.833 20V6.8H578.993V9.32H579.449L578.993 9.824C578.993 8.784 579.305 7.984 579.929 7.424C580.553 6.848 581.417 6.56 582.521 6.56C583.849 6.56 584.905 6.968 585.689 7.784C586.473 8.6 586.865 9.712 586.865 11.12V20H584.705V11.36C584.705 10.416 584.449 9.696 583.937 9.2C583.441 8.688 582.761 8.432 581.897 8.432C581.001 8.432 580.289 8.704 579.761 9.248C579.249 9.792 578.993 10.576 578.993 11.6V20H576.833ZM595.448 20.24C594.136 20.24 593.072 19.8 592.256 18.92C591.456 18.04 591.056 16.848 591.056 15.344V11.48C591.056 9.96 591.456 8.76 592.256 7.88C593.056 7 594.12 6.56 595.448 6.56C596.536 6.56 597.408 6.856 598.064 7.448C598.72 8.04 599.048 8.832 599.048 9.824L598.616 9.32H599.096L599.048 6.32V2.48H601.208V20H599.048V17.48H598.616L599.048 16.976C599.048 17.984 598.72 18.784 598.064 19.376C597.408 19.952 596.536 20.24 595.448 20.24ZM596.168 18.368C597.064 18.368 597.768 18.088 598.28 17.528C598.792 16.968 599.048 16.192 599.048 15.2V11.6C599.048 10.608 598.792 9.832 598.28 9.272C597.768 8.712 597.064 8.432 596.168 8.432C595.256 8.432 594.536 8.704 594.008 9.248C593.48 9.792 593.216 10.576 593.216 11.6V15.2C593.216 16.224 593.48 17.008 594.008 17.552C594.536 18.096 595.256 18.368 596.168 18.368ZM607.366 23.84L609.286 16.376H612.406L609.286 23.84H607.366ZM640.156 20.24C639.068 20.24 638.196 19.952 637.54 19.376C636.884 18.784 636.556 17.984 636.556 16.976L636.988 17.48H636.556V20H634.396V2.48H636.556V6.32L636.508 9.32H636.988L636.556 9.824C636.556 8.832 636.884 8.04 637.54 7.448C638.212 6.856 639.084 6.56 640.156 6.56C641.484 6.56 642.548 7 643.348 7.88C644.148 8.76 644.548 9.96 644.548 11.48V15.344C644.548 16.848 644.148 18.04 643.348 18.92C642.548 19.8 641.484 20.24 640.156 20.24ZM639.436 18.368C640.348 18.368 641.068 18.096 641.596 17.552C642.124 17.008 642.388 16.224 642.388 15.2V11.6C642.388 10.576 642.124 9.792 641.596 9.248C641.068 8.704 640.348 8.432 639.436 8.432C638.556 8.432 637.852 8.712 637.324 9.272C636.812 9.832 636.556 10.608 636.556 11.6V15.2C636.556 16.192 636.812 16.968 637.324 17.528C637.852 18.088 638.556 18.368 639.436 18.368ZM652.626 20.24C651.234 20.24 650.138 19.888 649.338 19.184C648.538 18.464 648.138 17.496 648.138 16.28C648.138 15.048 648.538 14.08 649.338 13.376C650.138 12.672 651.218 12.32 652.578 12.32H656.658V11C656.658 10.184 656.41 9.56 655.914 9.128C655.434 8.68 654.746 8.456 653.85 8.456C653.066 8.456 652.41 8.624 651.882 8.96C651.354 9.28 651.05 9.72 650.97 10.28H648.81C648.954 9.144 649.49 8.24 650.418 7.568C651.346 6.896 652.506 6.56 653.898 6.56C655.418 6.56 656.618 6.952 657.498 7.736C658.378 8.52 658.818 9.584 658.818 10.928V20H656.706V17.48H656.346L656.706 17.12C656.706 18.08 656.33 18.84 655.578 19.4C654.842 19.96 653.858 20.24 652.626 20.24ZM653.154 18.536C654.178 18.536 655.018 18.28 655.674 17.768C656.33 17.256 656.658 16.6 656.658 15.8V13.928H652.626C651.906 13.928 651.338 14.128 650.922 14.528C650.506 14.928 650.298 15.472 650.298 16.16C650.298 16.896 650.546 17.48 651.042 17.912C651.554 18.328 652.258 18.536 653.154 18.536ZM668.265 20.24C667.209 20.24 666.281 20.04 665.481 19.64C664.697 19.24 664.089 18.664 663.657 17.912C663.225 17.144 663.009 16.24 663.009 15.2V11.6C663.009 10.544 663.225 9.64 663.657 8.888C664.089 8.136 664.697 7.56 665.481 7.16C666.281 6.76 667.209 6.56 668.265 6.56C669.785 6.56 671.009 6.968 671.937 7.784C672.865 8.6 673.353 9.712 673.401 11.12H671.241C671.193 10.272 670.905 9.624 670.377 9.176C669.865 8.712 669.161 8.48 668.265 8.48C667.321 8.48 666.569 8.752 666.009 9.296C665.449 9.824 665.169 10.584 665.169 11.576V15.2C665.169 16.192 665.449 16.96 666.009 17.504C666.569 18.048 667.321 18.32 668.265 18.32C669.161 18.32 669.865 18.088 670.377 17.624C670.905 17.16 671.193 16.512 671.241 15.68H673.401C673.353 17.088 672.865 18.2 671.937 19.016C671.009 19.832 669.785 20.24 668.265 20.24ZM677.639 20V2.48H679.799V12.248H682.343L686.183 6.8H688.655L684.215 13.088L688.727 20H686.207L682.367 14.12H679.799V20H677.639ZM696.95 20.24C695.91 20.24 694.998 20.032 694.214 19.616C693.446 19.2 692.846 18.616 692.414 17.864C691.998 17.096 691.79 16.208 691.79 15.2V11.6C691.79 10.576 691.998 9.688 692.414 8.936C692.846 8.184 693.446 7.6 694.214 7.184C694.998 6.768 695.91 6.56 696.95 6.56C697.99 6.56 698.894 6.768 699.662 7.184C700.446 7.6 701.046 8.184 701.462 8.936C701.894 9.688 702.11 10.576 702.11 11.6V13.928H693.902V15.2C693.902 16.24 694.166 17.04 694.694 17.6C695.222 18.144 695.974 18.416 696.95 18.416C697.782 18.416 698.454 18.272 698.966 17.984C699.478 17.68 699.79 17.232 699.902 16.64H702.062C701.918 17.744 701.374 18.624 700.43 19.28C699.502 19.92 698.342 20.24 696.95 20.24ZM699.998 12.488V11.6C699.998 10.56 699.734 9.76 699.206 9.2C698.694 8.64 697.942 8.36 696.95 8.36C695.974 8.36 695.222 8.64 694.694 9.2C694.166 9.76 693.902 10.56 693.902 11.6V12.296H700.166L699.998 12.488ZM706.349 20V6.8H708.509V9.32H708.965L708.509 9.824C708.509 8.784 708.821 7.984 709.445 7.424C710.069 6.848 710.933 6.56 712.037 6.56C713.365 6.56 714.421 6.968 715.205 7.784C715.989 8.6 716.381 9.712 716.381 11.12V20H714.221V11.36C714.221 10.416 713.965 9.696 713.453 9.2C712.957 8.688 712.277 8.432 711.413 8.432C710.517 8.432 709.805 8.704 709.277 9.248C708.765 9.792 708.509 10.576 708.509 11.6V20H706.349ZM724.963 20.24C723.651 20.24 722.587 19.8 721.771 18.92C720.971 18.04 720.571 16.848 720.571 15.344V11.48C720.571 9.96 720.971 8.76 721.771 7.88C722.571 7 723.635 6.56 724.963 6.56C726.051 6.56 726.923 6.856 727.579 7.448C728.235 8.04 728.563 8.832 728.563 9.824L728.131 9.32H728.611L728.563 6.32V2.48H730.723V20H728.563V17.48H728.131L728.563 16.976C728.563 17.984 728.235 18.784 727.579 19.376C726.923 19.952 726.051 20.24 724.963 20.24ZM725.683 18.368C726.579 18.368 727.283 18.088 727.795 17.528C728.307 16.968 728.563 16.192 728.563 15.2V11.6C728.563 10.608 728.307 9.832 727.795 9.272C727.283 8.712 726.579 8.432 725.683 8.432C724.771 8.432 724.051 8.704 723.523 9.248C722.995 9.792 722.731 10.576 722.731 11.6V15.2C722.731 16.224 722.995 17.008 723.523 17.552C724.051 18.096 724.771 18.368 725.683 18.368ZM736.882 23.84L738.802 16.376H741.922L738.802 23.84H736.882ZM767.751 20.24C766.359 20.24 765.263 19.888 764.463 19.184C763.663 18.464 763.263 17.496 763.263 16.28C763.263 15.048 763.663 14.08 764.463 13.376C765.263 12.672 766.343 12.32 767.703 12.32H771.783V11C771.783 10.184 771.535 9.56 771.039 9.128C770.559 8.68 769.871 8.456 768.975 8.456C768.191 8.456 767.535 8.624 767.007 8.96C766.479 9.28 766.175 9.72 766.095 10.28H763.935C764.079 9.144 764.615 8.24 765.543 7.568C766.471 6.896 767.631 6.56 769.023 6.56C770.543 6.56 771.743 6.952 772.623 7.736C773.503 8.52 773.943 9.584 773.943 10.928V20H771.831V17.48H771.471L771.831 17.12C771.831 18.08 771.455 18.84 770.703 19.4C769.967 19.96 768.983 20.24 767.751 20.24ZM768.279 18.536C769.303 18.536 770.143 18.28 770.799 17.768C771.455 17.256 771.783 16.6 771.783 15.8V13.928H767.751C767.031 13.928 766.463 14.128 766.047 14.528C765.631 14.928 765.423 15.472 765.423 16.16C765.423 16.896 765.671 17.48 766.167 17.912C766.679 18.328 767.383 18.536 768.279 18.536ZM778.302 20V6.8H780.462V9.32H780.918L780.462 9.824C780.462 8.784 780.774 7.984 781.398 7.424C782.022 6.848 782.886 6.56 783.99 6.56C785.318 6.56 786.374 6.968 787.158 7.784C787.942 8.6 788.334 9.712 788.334 11.12V20H786.174V11.36C786.174 10.416 785.918 9.696 785.406 9.2C784.91 8.688 784.23 8.432 783.366 8.432C782.47 8.432 781.758 8.704 781.23 9.248C780.718 9.792 780.462 10.576 780.462 11.6V20H778.302ZM796.916 20.24C795.604 20.24 794.54 19.8 793.724 18.92C792.924 18.04 792.524 16.848 792.524 15.344V11.48C792.524 9.96 792.924 8.76 793.724 7.88C794.524 7 795.588 6.56 796.916 6.56C798.004 6.56 798.876 6.856 799.532 7.448C800.188 8.04 800.516 8.832 800.516 9.824L800.084 9.32H800.564L800.516 6.32V2.48H802.676V20H800.516V17.48H800.084L800.516 16.976C800.516 17.984 800.188 18.784 799.532 19.376C798.876 19.952 798.004 20.24 796.916 20.24ZM797.636 18.368C798.532 18.368 799.236 18.088 799.748 17.528C800.26 16.968 800.516 16.192 800.516 15.2V11.6C800.516 10.608 800.26 9.832 799.748 9.272C799.236 8.712 798.532 8.432 797.636 8.432C796.724 8.432 796.004 8.704 795.476 9.248C794.948 9.792 794.684 10.576 794.684 11.6V15.2C794.684 16.224 794.948 17.008 795.476 17.552C796.004 18.096 796.724 18.368 797.636 18.368ZM826.466 20.24C824.834 20.24 823.586 19.792 822.722 18.896C821.858 17.984 821.426 16.752 821.426 15.2V2.48H823.586V15.2C823.586 16.16 823.818 16.92 824.282 17.48C824.762 18.04 825.49 18.32 826.466 18.32C827.426 18.32 828.146 18.04 828.626 17.48C829.106 16.92 829.346 16.16 829.346 15.2V2.48H831.506V15.2C831.506 16.768 831.074 18 830.21 18.896C829.362 19.792 828.114 20.24 826.466 20.24ZM836.176 20V18.032H839.752V4.448H836.176V2.48H845.536V4.448H841.96V18.032H845.536V20H836.176ZM849.847 22.64L858.367 0.079999H860.647L852.127 22.64H849.847ZM869.638 20.24C868.006 20.24 866.758 19.792 865.894 18.896C865.03 17.984 864.598 16.752 864.598 15.2V2.48H866.758V15.2C866.758 16.16 866.99 16.92 867.454 17.48C867.934 18.04 868.662 18.32 869.638 18.32C870.598 18.32 871.318 18.04 871.798 17.48C872.278 16.92 872.518 16.16 872.518 15.2V2.48H874.678V15.2C874.678 16.768 874.246 18 873.382 18.896C872.534 19.792 871.286 20.24 869.638 20.24ZM877.788 20L882.828 11.12L878.052 2.48H880.548L883.26 7.664C883.404 7.936 883.548 8.232 883.692 8.552C883.852 8.856 883.98 9.096 884.076 9.272C884.156 9.096 884.268 8.856 884.412 8.552C884.572 8.232 884.724 7.936 884.868 7.664L887.628 2.48H890.004L885.228 10.976L890.268 20H887.796L884.796 14.432C884.652 14.16 884.5 13.872 884.34 13.568C884.196 13.248 884.084 12.992 884.004 12.8C883.924 12.992 883.804 13.24 883.644 13.544C883.5 13.848 883.356 14.136 883.212 14.408L880.188 20H877.788ZM912.041 20.24C910.729 20.24 909.665 19.8 908.849 18.92C908.049 18.04 907.649 16.848 907.649 15.344V11.48C907.649 9.96 908.049 8.76 908.849 7.88C909.649 7 910.713 6.56 912.041 6.56C913.129 6.56 914.001 6.856 914.657 7.448C915.313 8.04 915.641 8.832 915.641 9.824L915.209 9.32H915.689L915.641 6.32V2.48H917.801V20H915.641V17.48H915.209L915.641 16.976C915.641 17.984 915.313 18.784 914.657 19.376C914.001 19.952 913.129 20.24 912.041 20.24ZM912.761 18.368C913.657 18.368 914.361 18.088 914.873 17.528C915.385 16.968 915.641 16.192 915.641 15.2V11.6C915.641 10.608 915.385 9.832 914.873 9.272C914.361 8.712 913.657 8.432 912.761 8.432C911.849 8.432 911.129 8.704 910.601 9.248C910.073 9.792 909.809 10.576 909.809 11.6V15.2C909.809 16.224 910.073 17.008 910.601 17.552C911.129 18.096 911.849 18.368 912.761 18.368ZM927.2 20.24C926.16 20.24 925.248 20.032 924.464 19.616C923.696 19.2 923.096 18.616 922.664 17.864C922.248 17.096 922.04 16.208 922.04 15.2V11.6C922.04 10.576 922.248 9.688 922.664 8.936C923.096 8.184 923.696 7.6 924.464 7.184C925.248 6.768 926.16 6.56 927.2 6.56C928.24 6.56 929.144 6.768 929.912 7.184C930.696 7.6 931.296 8.184 931.712 8.936C932.144 9.688 932.36 10.576 932.36 11.6V13.928H924.152V15.2C924.152 16.24 924.416 17.04 924.944 17.6C925.472 18.144 926.224 18.416 927.2 18.416C928.032 18.416 928.704 18.272 929.216 17.984C929.728 17.68 930.04 17.232 930.152 16.64H932.312C932.168 17.744 931.624 18.624 930.68 19.28C929.752 19.92 928.592 20.24 927.2 20.24ZM930.248 12.488V11.6C930.248 10.56 929.984 9.76 929.456 9.2C928.944 8.64 928.192 8.36 927.2 8.36C926.224 8.36 925.472 8.64 924.944 9.2C924.416 9.76 924.152 10.56 924.152 11.6V12.296H930.416L930.248 12.488ZM941.183 20.192C940.287 20.192 939.503 20.056 938.831 19.784C938.175 19.496 937.647 19.096 937.247 18.584C936.863 18.072 936.631 17.464 936.551 16.76H938.711C938.807 17.224 939.063 17.592 939.479 17.864C939.911 18.136 940.479 18.272 941.183 18.272H942.191C943.039 18.272 943.671 18.104 944.087 17.768C944.503 17.416 944.711 16.952 944.711 16.376C944.711 15.816 944.519 15.376 944.135 15.056C943.767 14.72 943.215 14.496 942.479 14.384L940.703 14.096C939.407 13.872 938.439 13.472 937.799 12.896C937.175 12.304 936.863 11.448 936.863 10.328C936.863 9.144 937.239 8.232 937.991 7.592C938.743 6.936 939.871 6.608 941.375 6.608H942.287C943.551 6.608 944.567 6.904 945.335 7.496C946.103 8.088 946.567 8.888 946.727 9.896H944.567C944.471 9.48 944.231 9.152 943.847 8.912C943.463 8.656 942.943 8.528 942.287 8.528H941.375C940.559 8.528 939.959 8.68 939.575 8.984C939.207 9.288 939.023 9.744 939.023 10.352C939.023 10.896 939.183 11.296 939.503 11.552C939.823 11.808 940.327 11.992 941.015 12.104L942.791 12.392C944.215 12.616 945.247 13.032 945.887 13.64C946.543 14.248 946.871 15.128 946.871 16.28C946.871 17.496 946.479 18.456 945.695 19.16C944.927 19.848 943.759 20.192 942.191 20.192H941.183ZM950.821 20V18.032H955.501V8.768H951.421V6.8H957.661V18.032H962.101V20H950.821ZM956.341 4.424C955.813 4.424 955.397 4.288 955.093 4.016C954.789 3.744 954.637 3.376 954.637 2.912C954.637 2.432 954.789 2.056 955.093 1.784C955.397 1.496 955.813 1.352 956.341 1.352C956.869 1.352 957.285 1.496 957.589 1.784C957.893 2.056 958.045 2.432 958.045 2.912C958.045 3.376 957.893 3.744 957.589 4.016C957.285 4.288 956.869 4.424 956.341 4.424ZM967.036 24.32V22.352H971.236C971.908 22.352 972.396 22.2 972.7 21.896C973.02 21.592 973.18 21.12 973.18 20.48V18.8L973.228 16.4H972.796L973.204 16.04C973.204 17 972.884 17.76 972.244 18.32C971.604 18.88 970.748 19.16 969.676 19.16C968.316 19.16 967.244 18.72 966.46 17.84C965.676 16.944 965.284 15.744 965.284 14.24V11.456C965.284 9.952 965.676 8.76 966.46 7.88C967.244 7 968.316 6.56 969.676 6.56C970.748 6.56 971.604 6.84 972.244 7.4C972.884 7.96 973.204 8.72 973.204 9.68L972.796 9.32H973.204V6.8H975.34V20.48C975.34 21.664 974.972 22.6 974.236 23.288C973.516 23.976 972.508 24.32 971.212 24.32H967.036ZM970.324 17.288C971.22 17.288 971.924 17.008 972.436 16.448C972.948 15.888 973.204 15.112 973.204 14.12V11.6C973.204 10.608 972.948 9.832 972.436 9.272C971.924 8.712 971.22 8.432 970.324 8.432C969.412 8.432 968.7 8.704 968.188 9.248C967.692 9.792 967.444 10.576 967.444 11.6V14.12C967.444 15.144 967.692 15.928 968.188 16.472C968.7 17.016 969.412 17.288 970.324 17.288ZM979.771 20V6.8H981.931V9.32H982.387L981.931 9.824C981.931 8.784 982.243 7.984 982.867 7.424C983.491 6.848 984.355 6.56 985.459 6.56C986.787 6.56 987.843 6.968 988.627 7.784C989.411 8.6 989.803 9.712 989.803 11.12V20H987.643V11.36C987.643 10.416 987.387 9.696 986.875 9.2C986.379 8.688 985.699 8.432 984.835 8.432C983.939 8.432 983.227 8.704 982.699 9.248C982.187 9.792 981.931 10.576 981.931 11.6V20H979.771ZM999.153 20.24C998.545 20.24 998.057 20.064 997.689 19.712C997.337 19.36 997.161 18.888 997.161 18.296C997.161 17.672 997.337 17.176 997.689 16.808C998.057 16.44 998.545 16.256 999.153 16.256C999.761 16.256 1000.24 16.44 1000.59 16.808C1000.96 17.176 1001.15 17.672 1001.15 18.296C1001.15 18.888 1000.96 19.36 1000.59 19.712C1000.24 20.064 999.761 20.24 999.153 20.24Z" fill="#B4B4B4"/>
</svg>
