<svg width="308" height="74" viewBox="0 0 308 74" fill="none" xmlns="http://www.w3.org/2000/svg">
<path d="M1.74108 71.9998C0.781077 71.9993 0.301259 71.679 0.301624 71.039C0.301989 70.399 0.750226 69.9833 1.64634 69.7918L3.0865 69.5046C4.36665 69.2493 5.32699 68.6419 5.96754 67.6822C6.60812 66.6586 7.15293 65.2509 7.60195 63.4592L22.5162 3.46765C22.6445 2.82773 22.8368 2.41183 23.0929 2.21998C23.413 2.02816 23.701 1.93233 23.957 1.93248C24.277 1.93266 24.565 2.02882 24.8209 2.22096C25.1408 2.41315 25.3645 2.82928 25.4922 3.46935L40.6255 64.342C41.0724 66.1342 41.5837 67.3825 42.1593 68.0869C42.7349 68.7912 43.6306 69.2717 44.8465 69.5284L46.2863 69.8172C47.1822 70.0097 47.63 70.426 47.6296 71.066C47.6293 71.706 47.1491 72.0257 46.1891 72.0252L29.7731 72.0158C28.8771 72.0153 28.4293 71.663 28.4297 70.959C28.4301 70.255 28.9743 69.8713 30.0623 69.808L31.8864 69.617C32.9745 69.4896 33.6467 69.138 33.903 68.5622C34.2234 67.9863 34.2239 66.9943 33.9047 65.5862L30.2652 50.7041C29.8822 49.0399 28.8266 48.2073 27.0986 48.2063L17.0187 48.2005C15.3547 48.1996 14.2982 49.031 13.8492 50.6947L10.5779 63.5569C9.61581 67.2043 10.5747 69.2209 13.4544 69.6065L14.8943 69.7993C15.9822 69.9919 16.526 70.3762 16.5257 70.9522C16.5253 71.6562 16.0771 72.008 15.1811 72.0075L1.74108 71.9998ZM16.7323 45.3204L27.2923 45.3264C28.3163 45.327 28.7326 44.7832 28.5412 43.6951L22.4119 17.9636L21.9319 17.9633L15.4852 43.6877C15.2926 44.7755 15.7083 45.3198 16.7323 45.3204ZM65.6796 72.9003C63.0556 72.8988 60.528 72.0653 58.097 70.4C56.6895 69.4392 55.4094 69.6944 54.2566 71.1658C53.6162 71.8694 53.1359 72.3171 52.8158 72.5089C52.4956 72.7648 52.1756 72.8926 51.8556 72.8924C51.1516 72.892 50.8958 72.4439 51.0883 71.548C51.3452 70.0761 51.5383 68.1882 51.6676 65.8843C51.7969 63.5804 51.8626 60.5084 51.8648 56.6684L51.8911 10.5884C51.8918 9.4364 51.7002 8.6683 51.3164 8.28408C50.9967 7.8359 50.3888 7.54755 49.4929 7.41904L47.4771 7.12989C46.7731 7.00149 46.4214 6.61729 46.4217 5.97729C46.4221 5.33729 46.7743 4.95349 47.4784 4.82589C49.2706 4.44291 50.7749 3.99577 51.9912 3.48446C53.2074 2.97315 54.2317 2.46174 55.064 1.95022C56.0884 1.3108 56.8566 0.991238 57.3686 0.99153C58.0726 0.991932 58.4243 1.50413 58.4237 2.52813L58.4102 26.2401C58.4099 26.7521 58.6017 27.1042 58.9856 27.2965C59.4335 27.4247 59.9136 27.233 60.4259 26.7213C63.1795 23.9068 66.1883 22.5006 69.4523 22.5024C72.3963 22.5041 74.9877 23.4976 77.2266 25.4829C79.5295 27.4042 81.32 30.0932 82.598 33.5499C83.94 37.0067 84.6097 41.0711 84.6071 45.7431C84.604 51.0551 83.7694 55.7586 82.103 59.8536C80.4367 63.9487 78.1629 67.1474 75.2815 69.4498C72.4642 71.7521 69.2636 72.9023 65.6796 72.9003ZM65.4889 70.5002C69.0729 70.5022 71.9541 68.3919 74.1326 64.1691C76.375 59.9464 77.4982 54.251 77.5023 47.083C77.5061 40.491 76.5489 35.4665 74.6309 32.0094C72.7129 28.5523 69.9939 26.8227 66.4739 26.8207C64.2979 26.8195 62.4093 27.7144 60.8083 29.5055C59.2073 31.2966 58.4059 33.7921 58.404 36.9921L58.3903 61.1841C58.3886 64.0641 59.0273 66.3365 60.3064 68.0012C61.6494 69.666 63.3769 70.499 65.4889 70.5002ZM107.954 72.9244C104.69 72.9225 101.747 71.8328 99.1239 69.6554C96.5652 67.4139 94.5189 64.3727 92.9851 60.5319C91.4513 56.691 90.6858 52.4025 90.6885 47.6665C90.6912 42.9305 91.4616 38.675 92.9997 34.8999C94.5379 31.1247 96.6196 28.1179 99.2449 25.8794C101.87 23.6409 104.783 22.5226 107.983 22.5244C111.247 22.5263 114.158 23.6479 116.717 25.8894C119.34 28.1309 121.418 31.1401 122.952 34.9169C124.486 38.6938 125.251 42.9502 125.248 47.6862C125.246 52.4222 124.475 56.7098 122.937 60.5489C121.463 64.3881 119.413 67.4269 116.788 69.6654C114.163 71.8399 111.218 72.9263 107.954 72.9244ZM107.955 70.5244C114.611 70.5282 117.944 62.9141 117.952 47.6821C117.961 32.5141 114.637 24.9282 107.981 24.9244C101.325 24.9206 97.9931 32.5027 97.9845 47.6707C97.9758 62.9027 101.299 70.5206 107.955 70.5244ZM144.07 72.945C142.47 72.9441 140.934 72.5912 139.462 71.8864C137.991 71.1815 136.775 70.0608 135.816 68.5243C134.857 66.9877 134.378 64.9395 134.38 62.3795L134.399 28.9715C134.399 27.8195 134.208 27.0194 133.824 26.5711C133.504 26.1229 132.896 25.8666 132 25.8021L130.369 25.6092C129.281 25.4805 128.737 25.0642 128.737 24.3602C128.738 23.5282 129.346 23.1126 130.562 23.1133L139.49 23.1184C140.45 23.1189 140.93 23.5992 140.929 24.5592L140.909 60.3672C140.907 63.3112 141.45 65.4235 142.537 66.7041C143.688 67.9208 145.256 68.5297 147.24 68.5308C149.224 68.5319 150.984 67.9889 152.521 66.9018C154.058 65.7507 155.275 64.2474 156.172 62.3919C157.133 60.4724 157.614 58.3927 157.615 56.1527L157.631 28.9847C157.631 27.8327 157.44 27.0326 157.056 26.5844C156.736 26.1362 156.128 25.8799 155.232 25.8153L153.601 25.6224C152.513 25.4938 151.969 25.0775 151.969 24.3735C151.97 23.5415 152.578 23.1258 153.794 23.1265L162.722 23.1316C163.682 23.1322 164.162 23.6124 164.161 24.5724L164.14 61.8204C164.139 62.9724 164.299 63.7725 164.619 64.2207C165.002 64.6049 165.642 64.8613 166.538 64.9898L168.554 65.2789C169.386 65.3434 169.802 65.6637 169.801 66.2397C169.801 66.8157 169.289 67.1994 168.265 67.3908C166.281 67.6456 164.68 68.1567 163.464 68.924C162.311 69.6914 161.287 70.6188 160.39 71.7063C159.814 72.282 159.334 72.5697 158.95 72.5695C158.374 72.5691 158.086 72.185 158.086 71.417L158.089 67.001C158.089 66.489 157.897 66.2009 157.513 66.1366C157.194 66.0085 156.841 66.1363 156.457 66.52C154.088 68.8867 151.975 70.5495 150.118 71.5084C148.326 72.4674 146.31 72.9463 144.07 72.945ZM185.359 72.9685C183.119 72.9673 181.264 72.1982 179.793 70.6614C178.386 69.0606 177.683 66.4682 177.685 62.8842L177.706 26.9802C177.706 26.2122 177.322 25.8279 176.554 25.8275L173.77 25.8259C172.746 25.8253 172.234 25.441 172.235 24.673C172.235 24.161 172.523 23.7132 173.1 23.3295C175.212 21.8587 176.909 20.2917 178.19 18.6284C179.471 16.9012 180.593 14.5658 181.554 11.6223C182.003 10.2786 182.547 9.60692 183.187 9.60728C183.891 9.60768 184.243 10.1199 184.243 11.1439L184.236 21.7999C184.236 22.6959 184.684 23.1441 185.58 23.1446L191.82 23.1482C192.844 23.1488 193.355 23.5971 193.355 24.4931C193.354 25.3891 192.842 25.8368 191.818 25.8362L185.578 25.8326C184.682 25.8321 184.234 26.2799 184.233 27.1759L184.213 62.9839C184.212 64.3919 184.436 65.512 184.883 66.3443C185.331 67.1125 186.162 67.497 187.378 67.4977C188.722 67.4984 189.811 66.8271 190.644 65.4835C191.54 64.1401 192.118 61.9644 192.375 58.9565C192.504 58.0606 192.92 57.6128 193.624 57.6132C194.392 57.6137 194.776 58.0939 194.775 59.0539C194.58 63.9818 193.554 67.5332 191.697 69.7081C189.904 71.8831 187.791 72.9699 185.359 72.9685ZM242.645 71.1772C242.389 71.1771 242.101 71.0809 241.781 70.8887C241.461 70.6965 241.237 70.2804 241.109 69.6403L226.647 10.7841C226.583 10.336 226.391 10.1439 226.071 10.2077C225.751 10.2076 225.591 10.4315 225.591 10.8795L223.641 63.8704C223.576 65.6623 223.863 67.0385 224.502 67.9989C225.142 68.8952 226.262 69.4719 227.861 69.7288L229.109 69.9215C229.941 69.986 230.357 70.3702 230.357 71.0742C230.356 71.7782 229.876 72.1299 228.916 72.1294L215.188 72.1215C214.228 72.121 213.748 71.7687 213.749 71.0647C213.749 70.3607 214.165 69.977 214.997 69.9134L216.245 69.7221C217.91 69.4671 219.03 68.8917 219.606 67.9961C220.247 67.0364 220.6 65.6606 220.665 63.8687L222.616 9.34176C222.681 7.9978 222.489 7.10169 222.041 6.65344C221.594 6.20518 220.634 5.85264 219.162 5.5958L216.954 5.21054C216.122 5.01806 215.707 4.63382 215.707 4.05782C215.707 3.35382 216.187 3.0021 217.147 3.00265L228.667 3.00922C230.651 3.01035 231.867 3.97104 232.314 5.89129L243.902 53.8019C244.03 54.25 244.222 54.4741 244.478 54.4742C244.798 54.4744 244.99 54.2505 245.054 53.8026L257.178 5.42547C257.563 3.82569 258.587 3.02628 260.251 3.02723L271.579 3.03369C272.539 3.03423 273.019 3.38651 273.019 4.09051C273.019 4.66651 272.602 5.05027 271.77 5.2418L269.562 5.62454C268.218 5.87977 267.322 6.23126 266.873 6.679C266.425 7.12675 266.233 8.02264 266.296 9.36667L268.184 65.8158C268.247 67.1598 268.47 68.0559 268.854 68.5041C269.238 68.9524 270.102 69.3049 271.446 69.5616L273.653 69.9469C274.485 70.1394 274.901 70.5236 274.901 71.0996C274.9 71.8036 274.42 72.1553 273.46 72.1548L256.084 72.1449C255.124 72.1443 254.644 71.792 254.645 71.088C254.645 70.512 255.061 70.1283 255.893 69.9368L258.102 69.554C259.446 69.2988 260.342 68.9473 260.79 68.4995C261.238 68.0518 261.431 67.1559 261.368 65.8119L259.767 10.899C259.767 10.451 259.607 10.2269 259.287 10.2267C259.031 10.1625 258.839 10.3224 258.711 10.7063L244.085 69.642C243.957 70.2819 243.733 70.6978 243.413 70.8896C243.157 71.0815 242.901 71.1773 242.645 71.1772ZM293.742 73.0303C290.67 73.0286 287.918 72.003 285.488 69.9536C283.057 67.9042 281.106 65.0231 279.636 61.3103C278.231 57.5335 277.529 53.1811 277.532 48.2531C277.535 43.1971 278.273 38.7495 279.748 34.9104C281.222 31.0712 283.239 28.0643 285.801 25.8898C288.362 23.7153 291.211 22.6289 294.347 22.6307C298.123 22.6328 301.162 24.2026 303.464 27.3399C305.83 30.4132 307.011 35.4379 307.007 42.4139C307.006 44.5259 306.205 45.5814 304.605 45.5805L286.365 45.5701C285.085 45.5694 284.445 46.305 284.444 47.777C284.44 54.561 285.429 59.6496 287.411 63.0427C289.394 66.4359 291.921 68.1333 294.993 68.1351C297.425 68.1364 299.409 67.2736 300.946 65.5464C302.483 63.8193 303.733 60.908 304.695 56.8126C304.887 56.1087 305.304 55.7569 305.944 55.7573C306.712 55.7577 306.999 56.3979 306.807 57.6778C305.779 63.3732 304.145 67.3723 301.904 69.675C299.662 71.9137 296.942 73.0322 293.742 73.0303ZM286.079 43.17L295.775 43.1755C298.847 43.1772 300.384 41.5781 300.386 38.3781C300.388 34.2181 299.878 30.9538 298.855 28.5852C297.832 26.2167 296.297 25.0318 294.249 25.0306C291.753 25.0292 289.64 26.468 287.911 29.347C286.245 32.2261 285.155 36.3214 284.64 41.6331C284.511 42.6571 284.991 43.1693 286.079 43.17Z" fill="white"/>
</svg>
