<svg width="40" height="28" viewBox="0 0 40 28" fill="none" xmlns="http://www.w3.org/2000/svg">
<path d="M7.76847 11.5625C7.71544 11.0663 7.49195 10.6799 7.09801 10.4034C6.70786 10.1269 6.20028 9.98864 5.57528 9.98864C5.13589 9.98864 4.759 10.0549 4.4446 10.1875C4.13021 10.3201 3.88968 10.5 3.72301 10.7273C3.55634 10.9545 3.47112 11.214 3.46733 11.5057C3.46733 11.7481 3.52225 11.9583 3.6321 12.1364C3.74574 12.3144 3.89915 12.4659 4.09233 12.5909C4.28551 12.7121 4.49953 12.8144 4.73438 12.8977C4.96922 12.9811 5.20597 13.0511 5.4446 13.108L6.53551 13.3807C6.97491 13.483 7.39725 13.6212 7.80256 13.7955C8.21165 13.9697 8.57718 14.1894 8.89915 14.4545C9.22491 14.7197 9.48248 15.0398 9.67188 15.4148C9.86127 15.7898 9.95597 16.2292 9.95597 16.733C9.95597 17.4148 9.78172 18.0152 9.43324 18.5341C9.08475 19.0492 8.58097 19.4527 7.92188 19.7443C7.26657 20.0322 6.47301 20.1761 5.54119 20.1761C4.63589 20.1761 3.84991 20.036 3.18324 19.7557C2.52036 19.4754 2.00142 19.0663 1.62642 18.5284C1.25521 17.9905 1.05445 17.3352 1.02415 16.5625H3.09801C3.12831 16.9678 3.25331 17.3049 3.47301 17.5739C3.69271 17.8428 3.97869 18.0436 4.33097 18.1761C4.68703 18.3087 5.08475 18.375 5.52415 18.375C5.98248 18.375 6.384 18.3068 6.72869 18.1705C7.07718 18.0303 7.34991 17.8371 7.54688 17.5909C7.74384 17.3409 7.84422 17.0492 7.84801 16.7159C7.84422 16.4129 7.75521 16.1629 7.58097 15.9659C7.40672 15.7652 7.16241 15.5985 6.84801 15.4659C6.53741 15.3295 6.17377 15.2083 5.7571 15.1023L4.43324 14.7614C3.47491 14.5152 2.71733 14.142 2.16051 13.642C1.60748 13.1383 1.33097 12.4697 1.33097 11.6364C1.33097 10.9508 1.51657 10.3504 1.88778 9.83523C2.26278 9.32008 2.77225 8.92045 3.41619 8.63636C4.06013 8.34848 4.7893 8.20455 5.60369 8.20455C6.42945 8.20455 7.15294 8.34848 7.77415 8.63636C8.39915 8.92045 8.88968 9.31629 9.24574 9.82386C9.6018 10.3277 9.78551 10.9072 9.79688 11.5625H7.76847ZM15.608 20.1705C14.733 20.1705 13.9773 19.9886 13.3409 19.625C12.7083 19.2576 12.2216 18.7386 11.8807 18.0682C11.5398 17.3939 11.3693 16.6004 11.3693 15.6875C11.3693 14.7898 11.5398 14.0019 11.8807 13.3239C12.2254 12.642 12.7064 12.1117 13.3239 11.733C13.9413 11.3504 14.6667 11.1591 15.5 11.1591C16.0379 11.1591 16.5455 11.2462 17.0227 11.4205C17.5038 11.5909 17.928 11.8561 18.2955 12.2159C18.6667 12.5758 18.9583 13.0341 19.1705 13.5909C19.3826 14.1439 19.4886 14.803 19.4886 15.5682V16.1989H12.3352V14.8125H17.517C17.5133 14.4186 17.428 14.0682 17.2614 13.7614C17.0947 13.4508 16.8617 13.2064 16.5625 13.0284C16.267 12.8504 15.9223 12.7614 15.5284 12.7614C15.108 12.7614 14.7386 12.8636 14.4205 13.0682C14.1023 13.2689 13.8542 13.5341 13.6761 13.8636C13.5019 14.1894 13.4129 14.5473 13.4091 14.9375V16.1477C13.4091 16.6553 13.5019 17.0909 13.6875 17.4545C13.8731 17.8144 14.1326 18.0909 14.4659 18.2841C14.7992 18.4735 15.1894 18.5682 15.6364 18.5682C15.9356 18.5682 16.2064 18.5265 16.4489 18.4432C16.6913 18.3561 16.9015 18.2292 17.0795 18.0625C17.2576 17.8958 17.392 17.6894 17.483 17.4432L19.4034 17.6591C19.2822 18.1667 19.0511 18.6098 18.7102 18.9886C18.3731 19.3636 17.9413 19.6553 17.4148 19.8636C16.8883 20.0682 16.286 20.1705 15.608 20.1705ZM23.2855 14.8864V20H21.2287V11.2727H23.1946V12.7557H23.2969C23.4976 12.267 23.8177 11.8788 24.2571 11.5909C24.7003 11.303 25.2476 11.1591 25.8991 11.1591C26.5014 11.1591 27.026 11.2879 27.473 11.5455C27.9238 11.803 28.2723 12.1761 28.5185 12.6648C28.7685 13.1534 28.8916 13.7462 28.8878 14.4432V20H26.831V14.7614C26.831 14.178 26.6795 13.7216 26.3764 13.392C26.0772 13.0625 25.6624 12.8977 25.1321 12.8977C24.7723 12.8977 24.4522 12.9773 24.1719 13.1364C23.8954 13.2917 23.6776 13.517 23.5185 13.8125C23.3632 14.108 23.2855 14.4659 23.2855 14.8864ZM34.2173 20.1534C33.5317 20.1534 32.9181 19.9773 32.3764 19.625C31.8348 19.2727 31.4067 18.7614 31.0923 18.0909C30.7779 17.4205 30.6207 16.6061 30.6207 15.6477C30.6207 14.678 30.7798 13.8598 31.098 13.1932C31.42 12.5227 31.8537 12.017 32.3991 11.6761C32.9446 11.3314 33.5526 11.1591 34.223 11.1591C34.7344 11.1591 35.1548 11.2462 35.4844 11.4205C35.8139 11.5909 36.0753 11.7973 36.2685 12.0398C36.4616 12.2784 36.6113 12.5038 36.7173 12.7159H36.8026V8.36364H38.8651V20H36.8423V18.625H36.7173C36.6113 18.8371 36.4579 19.0625 36.2571 19.3011C36.0563 19.536 35.7912 19.7367 35.4616 19.9034C35.1321 20.0701 34.7173 20.1534 34.2173 20.1534ZM34.7912 18.4659C35.2268 18.4659 35.598 18.3485 35.9048 18.1136C36.2116 17.875 36.4446 17.5436 36.6037 17.1193C36.7628 16.6951 36.8423 16.2008 36.8423 15.6364C36.8423 15.072 36.7628 14.5814 36.6037 14.1648C36.4484 13.7481 36.2173 13.4242 35.9105 13.1932C35.6075 12.9621 35.2344 12.8466 34.7912 12.8466C34.3329 12.8466 33.9503 12.9659 33.6435 13.2045C33.3366 13.4432 33.1056 13.7727 32.9503 14.1932C32.795 14.6136 32.7173 15.0947 32.7173 15.6364C32.7173 16.1818 32.795 16.6686 32.9503 17.0966C33.1094 17.5208 33.3423 17.8561 33.6491 18.1023C33.9598 18.3447 34.3404 18.4659 34.7912 18.4659Z" fill="white"/>
</svg>
